<svg id="Layer_1" data-name="Layer 1" xmlns="http://www.w3.org/2000/svg" viewBox="0 0 102.53 38.51"><defs><style>.cls-1{fill:#474747;}</style></defs><title>signature</title><path class="cls-1" d="M102.336,24.507c-.247-.115-.492-.235-.745-.335a.689.689,0,0,0-.321-.041c-.405.047-.807.114-1.211.164a7.213,7.213,0,0,1-2.5-.2.685.685,0,0,1-.2-.088,5.508,5.508,0,0,1-1.421-1.336c-.305-.39-.581-.8-.9-1.18a9.069,9.069,0,0,0-.894-.881,5.9,5.9,0,0,0-1.827-.961,3.971,3.971,0,0,0-1.564-.239,3.277,3.277,0,0,0-1.215.3,8.54,8.54,0,0,0-1.224.605,19.593,19.593,0,0,0-2.532,1.876c-.6.531-1.234,1.026-1.862,1.526a1.592,1.592,0,0,1-.745.414c-.019-.3-.03-.565-.055-.831a.367.367,0,0,1,.263-.394,6.755,6.755,0,0,0,.792-.4,15.242,15.242,0,0,0,2.217-1.558c.516-.476,1.053-.933,1.549-1.43A22.354,22.354,0,0,0,89.825,17.3,23.922,23.922,0,0,0,92.4,13.047a23.294,23.294,0,0,0,1.546-4.13,18.6,18.6,0,0,0,.58-3.176,9.84,9.84,0,0,0-.211-3.388A2.528,2.528,0,0,0,92.919.463c-.3-.125-.6-.24-.891-.367a1.384,1.384,0,0,0-1.009,0,3.946,3.946,0,0,0-1.54.988,15.33,15.33,0,0,0-2.553,3.392c-.483.835-.909,1.7-1.339,2.567a31.108,31.108,0,0,0-1.545,3.809c-.323.946-.609,1.9-.877,2.867-.255.916-.476,1.843-.691,2.769-.129.556-.238,1.118-.323,1.683-.133.878-.245,1.76-.351,2.642-.047.391-.068.786-.08,1.179a.351.351,0,0,1-.289.362,7.51,7.51,0,0,1-2.8.446,1.392,1.392,0,0,1-.84-.253,3.047,3.047,0,0,1-.822-1.083,4.263,4.263,0,0,1-.393-2.089,3.462,3.462,0,0,1,.122-.647c.042-.181.118-.355.145-.536a.292.292,0,0,0-.106-.238,3.62,3.62,0,0,0-1.081-.468c-.448.311-.3.869-.577,1.236-.038-.031-.063-.043-.073-.062a1.589,1.589,0,0,1-.072-.171,1.884,1.884,0,0,0-.977-1.11c-.291-.135-.584-.269-.885-.382a1.961,1.961,0,0,0-1.279-.063,3.83,3.83,0,0,0-2.035,1.629,5.706,5.706,0,0,0-.782,1.715,3.043,3.043,0,0,0-.054,1.5,1.215,1.215,0,0,0,.364.67,6.011,6.011,0,0,0,1.71.859,1.679,1.679,0,0,0,.385.03,2.617,2.617,0,0,1-.722.459,2.314,2.314,0,0,1-1.349.307.658.658,0,0,1-.3-.117,2.968,2.968,0,0,1-.376-.408,10.686,10.686,0,0,1-1.184-2.054,10.805,10.805,0,0,0-.98-1.655,1.531,1.531,0,0,0-.448-.431,9.281,9.281,0,0,0-1.2-.592,1.486,1.486,0,0,0-1.018-.033,3.359,3.359,0,0,0-1.161.836c-.3.263-.569.568-.854.857l-.811-.322a.255.255,0,0,0-.366.141c-.107.223-.235.436-.346.657a9.853,9.853,0,0,1-.667,1.322,5.715,5.715,0,0,1-1.768,1.717,6.65,6.65,0,0,1-.708.305.23.23,0,0,1-.312-.119c-.142-.232-.291-.461-.417-.7-.2-.382-.361-.787-.583-1.155A12.716,12.716,0,0,0,54.905,21a3.34,3.34,0,0,0-.782-.719A10.01,10.01,0,0,0,53,19.723a1.493,1.493,0,0,0-1.523.089.786.786,0,0,1-.875.045c-.454-.212-.525-.177-.819.248a12.453,12.453,0,0,0-1.19,2.425,1.7,1.7,0,0,1-.371.536,3.8,3.8,0,0,1-.413.368,2.725,2.725,0,0,1-1.183.571.975.975,0,0,1-.123-.158,1.219,1.219,0,0,1-.073-.208,4.979,4.979,0,0,1-.14-1.909.788.788,0,0,1,.245-.562.959.959,0,0,0,.275-.737c-.246-.122-.493-.258-.752-.369-.484-.208-.486-.2-.827.208-.013.016-.045.016-.029.011-.447-.242-.861-.485-1.292-.7a6.622,6.622,0,0,0-1.967-.629,7.662,7.662,0,0,0-3.329.261,13.65,13.65,0,0,0-3.275,1.525,26.31,26.31,0,0,0-3.206,2.333,1.163,1.163,0,0,1-.213.105c.038-.384.068-.715.1-1.045.091-.824.177-1.648.279-2.471.079-.639.161-1.278.274-1.912.128-.719.285-1.434.445-2.148.083-.369.2-.731.308-1.115-.3-.143-.567-.289-.851-.409-.352-.149-.431-.11-.578.265a12.427,12.427,0,0,0-.643,2.623c-.152.963-.283,1.93-.412,2.9-.076.563-.136,1.127-.193,1.692-.082.823-.177,1.645-.222,2.47a.977.977,0,0,1-.463.783c-.457.34-.9.694-1.355,1.041-.294.226-.591.448-.884.677-.525.409-1.041.832-1.575,1.23-.437.327-.892.629-1.343.936-.23.156-.469.3-.709.449a2.23,2.23,0,0,1-.149-.172,35.922,35.922,0,0,0-2.931-3.926c-.414-.473-.813-.96-1.238-1.423a13.354,13.354,0,0,0-1.963-1.84.647.647,0,0,1-.278-.731c.1-.535.178-1.075.256-1.614q.316-2.187.626-4.374c.03-.209.043-.42.074-.628a.222.222,0,0,0-.15-.263c-.248-.111-.487-.245-.741-.337-.347-.126-.424-.071-.484.3q-.134.823-.253,1.65c-.2,1.382-.389,2.765-.589,4.146a5.618,5.618,0,0,1-.143.564,1.155,1.155,0,0,1-.122-.061A22.668,22.668,0,0,0,13.4,18.96a13.907,13.907,0,0,0-3.321-1.15,11.82,11.82,0,0,0-3.062-.2,6.7,6.7,0,0,0-1.82.325,12.432,12.432,0,0,0-1.533.64,7.966,7.966,0,0,0-1.782,1.259A5.536,5.536,0,0,0,.662,21.6,6.94,6.94,0,0,0,0,24.678a8.124,8.124,0,0,0,.566,2.7,9.932,9.932,0,0,0,1.512,2.77A13.32,13.32,0,0,0,4.463,32.4,14.71,14.71,0,0,0,6.89,33.753a12.323,12.323,0,0,0,3.879,1.086,11.44,11.44,0,0,0,3.142-.028c.707-.1,1.405-.263,2.1-.41a8.157,8.157,0,0,0,1.04-.262c.767-.267,1.533-.54,2.282-.853.772-.323,1.535-.672,2.279-1.055.659-.338,1.286-.738,1.928-1.11.095-.054.194-.1.317-.163a3.873,3.873,0,0,1,.248.334c.342.584.683,1.17,1.017,1.758.274.484.52.984.811,1.457.513.832,1.047,1.65,1.579,2.469a4.3,4.3,0,0,0,.394.491,5.179,5.179,0,0,0,1.712,1,.425.425,0,0,0,.523-.169,2.437,2.437,0,0,0,.518-1.253c.127-.793.217-1.593.3-2.392.1-1.008.182-2.019.269-3.029.09-1.033.182-2.066.265-3.1.068-.849.148-1.7.177-2.549a1.427,1.427,0,0,1,.646-1.3c.736-.494,1.384-1.115,2.1-1.641.73-.537,1.5-1.025,2.248-1.531a3.56,3.56,0,0,1,.378-.188,2.287,2.287,0,0,1-.1.252,2.436,2.436,0,0,0-.3,1.131,1.82,1.82,0,0,0,1.1,1.87,4.109,4.109,0,0,1,.6.3,2.417,2.417,0,0,0,1.821.277,5.5,5.5,0,0,0,1.061-.314,11.618,11.618,0,0,0,1.493-.713c.65-.386,1.264-.831,1.895-1.248.085-.057.18-.1.306-.168a2.5,2.5,0,0,0,.021.343,1.8,1.8,0,0,0,.961,1.438,3.663,3.663,0,0,1,.566.277,1.729,1.729,0,0,0,1.7.026,4,4,0,0,0,1.111-.778c.066-.054.138-.156.2-.15.175.018.241-.1.326-.2q.963-1.123,1.924-2.249a3.1,3.1,0,0,1,.927-.735c.446-.232.659-.2.953.2a11.874,11.874,0,0,1,1.244,2.061,11.212,11.212,0,0,0,.707,1.209,1.566,1.566,0,0,0,.764.625,3.539,3.539,0,0,1,.636.3,1.617,1.617,0,0,0,1.621.052,4.617,4.617,0,0,0,1.224-.881c.295-.242.282-.258.634-.1a.32.32,0,0,0,.095,0,2.345,2.345,0,0,0,.175-.165c.693-.8,1.374-1.613,2.08-2.4.419-.468.86-.919,1.322-1.344a4.454,4.454,0,0,1,.775-.489c.161-.095.282-.031.374.117.174.285.362.562.522.855.415.756.74,1.56,1.223,2.282a3.573,3.573,0,0,0,1.524,1.418c.261.112.509.256.762.386a2.23,2.23,0,0,0,1.179.259,3.537,3.537,0,0,0,1.566-.508A6.191,6.191,0,0,0,74.7,21.679a1.661,1.661,0,0,1,.677-.839c.06.123.116.244.177.362a3.345,3.345,0,0,0,1.4,1.571c.341.175.691.333,1.029.515a3.7,3.7,0,0,0,2.179.45c.526-.055,1.051-.124,1.584-.188a.091.091,0,0,1,.019.046,1.175,1.175,0,0,0,.758,1.252,5.818,5.818,0,0,1,.629.322.781.781,0,0,0,.711.081,3.359,3.359,0,0,0,.755-.379c.483-.342.947-.712,1.41-1.081s.943-.761,1.408-1.149a11.909,11.909,0,0,1,3.093-1.987,3.73,3.73,0,0,1,1.769-.29,1.319,1.319,0,0,1,.791.358,4.163,4.163,0,0,1,.451.487c.4.489.765,1,1.178,1.473A5.85,5.85,0,0,0,95.8,23.736a21.08,21.08,0,0,0,1.95,1.063,2.6,2.6,0,0,0,.552.213,8.71,8.71,0,0,0,3.636.144.848.848,0,0,0,.356-.092.685.685,0,0,0,.222-.319C102.568,24.61,102.437,24.555,102.336,24.507ZM83.269,20.3c.171-1.087.338-2.174.551-3.253.242-1.225.566-2.43.914-3.631A40.132,40.132,0,0,1,86.408,8.7a27.747,27.747,0,0,1,2.259-4.3,14.988,14.988,0,0,1,1.749-2.249,4.1,4.1,0,0,1,1.559-1.1c.4-.139.5-.11.67.272a5.109,5.109,0,0,1,.45,1.669A12.153,12.153,0,0,1,93.136,5.2,17.669,17.669,0,0,1,92.724,7.9,25.12,25.12,0,0,1,91.736,11a21.239,21.239,0,0,1-1.9,3.73c-.452.706-.937,1.392-1.439,2.064a16.593,16.593,0,0,1-1.828,2.074c-.427.408-.844.83-1.3,1.2a13.412,13.412,0,0,1-2.119,1.454C83.194,21.071,83.208,20.68,83.269,20.3ZM22.658,30.1c-.2.119-.4.238-.607.35-.6.33-1.208.666-1.821.98-.592.3-1.182.617-1.8.866-.856.345-1.723.672-2.606.936a16.275,16.275,0,0,1-2.414.551,14.4,14.4,0,0,1-2.25.184,14.3,14.3,0,0,1-3.223-.461,8.446,8.446,0,0,1-3.532-2.153A9.364,9.364,0,0,1,2.579,29.03a10.354,10.354,0,0,1-.7-1.628,7.453,7.453,0,0,1-.491-2.426,5.014,5.014,0,0,1,.034-.813,5.856,5.856,0,0,1,1.248-3.085,6.585,6.585,0,0,1,1.4-1.188A8.851,8.851,0,0,1,6.494,18.8a6.913,6.913,0,0,1,1.644-.242,11.534,11.534,0,0,1,2.362.122,11.9,11.9,0,0,1,2.179.575A12.155,12.155,0,0,1,15.217,20.7c.237.157.461.331.689.5a.307.307,0,0,1,.133.319c-.092.647-.172,1.3-.252,1.945q-.353,2.86-.7,5.722c-.076.636-.128,1.274-.192,1.916l1.178.583a.483.483,0,0,0,.237-.411c.066-.75.127-1.5.21-2.251.1-.91.218-1.818.335-2.726.12-.932.25-1.862.374-2.794.034-.257.061-.515.1-.772a.919.919,0,0,1,.078-.2c.978.541,5.618,6.382,5.709,7.3C22.972,29.91,22.816,30.009,22.658,30.1Zm7.528-3.141c-.129,1.668-.245,3.337-.4,5-.122,1.34-.285,2.675-.435,4.012-.035.319-.076.638-.136.953a2.548,2.548,0,0,1-.175.436c-.1-.124-.168-.194-.222-.272A27.722,27.722,0,0,1,27.231,34.5c-.225-.412-.483-.806-.716-1.214-.252-.439-.486-.887-.739-1.325-.3-.523-.62-1.04-.949-1.59.085-.069.164-.143.251-.2.7-.476,1.4-.938,2.083-1.428.522-.374,1.018-.783,1.526-1.176l1.521-1.176C30.2,26.627,30.2,26.8,30.186,26.962Zm12.929-7.014a3.637,3.637,0,0,1,.46.132c.279.083.327.129.546.555a14.287,14.287,0,0,1-2.21-.743A3.145,3.145,0,0,1,43.115,19.948Zm.823,1.7a21.567,21.567,0,0,1-2.431,1.641,6.864,6.864,0,0,1-2.615.953c-.391.036-.492-.007-.673-.366A1.639,1.639,0,0,1,38.391,22a3.535,3.535,0,0,1,2.834-1.428,4.918,4.918,0,0,1,1.553.295c.378.114.745.262,1.115.4a1.839,1.839,0,0,1,.262.158A2.417,2.417,0,0,1,43.938,21.648ZM73.69,20.232a.846.846,0,0,1-.226.447,6.5,6.5,0,0,1-2.435,1.573,6.094,6.094,0,0,1-.6.132,2.378,2.378,0,0,1-.151-1.287A4.2,4.2,0,0,1,71.4,18.8a3.2,3.2,0,0,1,1.371-.919c.418-.138.574-.053.765.36A3.283,3.283,0,0,1,73.69,20.232Z" transform="translate(0)"/></svg>